0
SECTION
2
HEADER
9
$INSUNITS
70
4
9
$ACADVER
1
AC1014
9
$HANDSEED
5
FFFF
0
ENDSEC
0
SECTION
2
TABLES
0
TABLE
2
VPORT
5
8
100
AcDbSymbolTable
0
ENDTAB
0
TABLE
2
LTYPE
5
5
100
AcDbSymbolTable
0
LTYPE
5
14
100
AcDbSymbolTableRecord
100
AcDbLinetypeTableRecord
2
BYBLOCK
70
0
0
LTYPE
5
15
100
AcDbSymbolTableRecord
100
AcDbLinetypeTableRecord
2
BYLAYER
70
0
0
LTYPE
5
16
100
AcDbSymbolTableRecord
100
AcDbLinetypeTableRecord
2
DASHED
70
0
3
Dashed __ __ __ __ __ __ __ __ __ __ __ __ __ _
72
65
73
2
40
0.75
49
0.5
74
0
49
-0.25
74
0
0
ENDTAB
0
TABLE
2
LAYER
5
2
100
AcDbSymbolTable
70
2
0
LAYER
5
50
100
AcDbSymbolTableRecord
100
AcDbLayerTableRecord
2
0
70
0
62
7
6
CONTINUOUS
0
ENDTAB
0
TABLE
2
STYLE
5
3
100
AcDbSymbolTable
70
1
0
STYLE
5
11
100
AcDbSymbolTableRecord
100
AcDbTextStyleTableRecord
2
STANDARD
70
0
0
ENDTAB
0
TABLE
2
VIEW
5
6
100
AcDbSymbolTable
70
0
0
ENDTAB
0
TABLE
2
UCS
5
7
100
AcDbSymbolTable
70
0
0
ENDTAB
0
TABLE
2
APPID
5
9
100
AcDbSymbolTable
70
2
0
APPID
5
12
100
AcDbSymbolTableRecord
100
AcDbRegAppTableRecord
2
ACAD
70
0
0
ENDTAB
0
TABLE
2
DIMSTYLE
5
A
100
AcDbSymbolTable
70
1
0
ENDTAB
0
TABLE
2
BLOCK_RECORD
5
1
100
AcDbSymbolTable
70
1
0
BLOCK_RECORD
5
1F
100
AcDbSymbolTableRecord
100
AcDbBlockTableRecord
2
*MODEL_SPACE
0
BLOCK_RECORD
5
1B
100
AcDbSymbolTableRecord
100
AcDbBlockTableRecord
2
*PAPER_SPACE
0
ENDTAB
0
ENDSEC
0
SECTION
2
BLOCKS
0
BLOCK
5
20
100
AcDbEntity
100
AcDbBlockBegin
2
*MODEL_SPACE
0
ENDBLK
5
21
100
AcDbEntity
100
AcDbBlockEnd
0
BLOCK
5
1C
100
AcDbEntity
100
AcDbBlockBegin
2
*PAPER_SPACE
0
ENDBLK
5
1D
100
AcDbEntity
100
AcDbBlockEnd
0
ENDSEC
0
SECTION
2
ENTITIES
0
LINE
5
100
100
AcDbEntity
8
0
100
AcDbLine
10
-27.270000000000003
20
48.951999999999998
30
0
11
-27.970000000000002
21
48.951999999999998
31
0
0
LINE
5
101
100
AcDbEntity
8
0
100
AcDbLine
10
-27.970000000000002
20
48.951999999999998
30
0
11
-27.970000000000002
21
47.028000000000006
31
0
0
LINE
5
102
100
AcDbEntity
8
0
100
AcDbLine
10
-27.970000000000002
20
47.028000000000006
30
0
11
-27.270000000000003
21
47.028000000000006
31
0
0
LINE
5
103
100
AcDbEntity
8
0
100
AcDbLine
10
-25.028000000000002
20
48.951999999999998
30
0
11
-27.470000000000002
21
48.951999999999998
31
0
0
LINE
5
104
100
AcDbEntity
8
0
100
AcDbLine
10
-25.028000000000002
20
47.028000000000006
30
0
11
-25.028000000000002
21
48.951999999999998
31
0
0
LINE
5
105
100
AcDbEntity
8
0
100
AcDbLine
10
-27.470000000000002
20
47.028000000000006
30
0
11
-25.028000000000002
21
47.028000000000006
31
0
0
LINE
5
106
100
AcDbEntity
8
0
100
AcDbLine
10
-3.4279999999999999
20
48.951999999999998
30
0
11
-5.8700000000000019
21
48.951999999999998
31
0
0
LINE
5
107
100
AcDbEntity
8
0
100
AcDbLine
10
-5.6700000000000017
20
48.951999999999998
30
0
11
-6.3700000000000001
21
48.951999999999998
31
0
0
LINE
5
108
100
AcDbEntity
8
0
100
AcDbLine
10
-6.3700000000000001
20
48.951999999999998
30
0
11
-6.3700000000000001
21
47.028000000000006
31
0
0
LINE
5
109
100
AcDbEntity
8
0
100
AcDbLine
10
-6.3700000000000001
20
47.028000000000006
30
0
11
-5.6700000000000017
21
47.028000000000006
31
0
0
LINE
5
110
100
AcDbEntity
8
0
100
AcDbLine
10
-5.8700000000000019
20
47.028000000000006
30
0
11
-3.4279999999999999
21
47.028000000000006
31
0
0
LINE
5
111
100
AcDbEntity
8
0
100
AcDbLine
10
-3.4279999999999999
20
47.028000000000006
30
0
11
-3.4279999999999999
21
48.951999999999998
31
0
0
LINE
5
112
100
AcDbEntity
8
0
100
AcDbLine
10
-25.028000000000002
20
51.492000000000004
30
0
11
-27.470000000000002
21
51.492000000000004
31
0
0
LINE
5
113
100
AcDbEntity
8
0
100
AcDbLine
10
-27.270000000000003
20
51.492000000000004
30
0
11
-27.970000000000002
21
51.492000000000004
31
0
0
LINE
5
114
100
AcDbEntity
8
0
100
AcDbLine
10
-27.970000000000002
20
51.492000000000004
30
0
11
-27.970000000000002
21
49.568000000000012
31
0
0
LINE
5
115
100
AcDbEntity
8
0
100
AcDbLine
10
-27.970000000000002
20
49.568000000000012
30
0
11
-27.270000000000003
21
49.568000000000012
31
0
0
LINE
5
116
100
AcDbEntity
8
0
100
AcDbLine
10
-27.470000000000002
20
49.568000000000012
30
0
11
-25.028000000000002
21
49.568000000000012
31
0
0
LINE
5
117
100
AcDbEntity
8
0
100
AcDbLine
10
-25.028000000000002
20
49.568000000000012
30
0
11
-25.028000000000002
21
51.492000000000004
31
0
0
LINE
5
118
100
AcDbEntity
8
0
100
AcDbLine
10
-3.4279999999999999
20
51.492000000000004
30
0
11
-5.8700000000000019
21
51.492000000000004
31
0
0
LINE
5
119
100
AcDbEntity
8
0
100
AcDbLine
10
-5.6700000000000017
20
51.492000000000004
30
0
11
-6.3700000000000001
21
51.492000000000004
31
0
0
LINE
5
120
100
AcDbEntity
8
0
100
AcDbLine
10
-6.3700000000000001
20
51.492000000000004
30
0
11
-6.3700000000000001
21
49.568000000000012
31
0
0
LINE
5
121
100
AcDbEntity
8
0
100
AcDbLine
10
-6.3700000000000001
20
49.568000000000012
30
0
11
-5.6700000000000017
21
49.568000000000012
31
0
0
LINE
5
122
100
AcDbEntity
8
0
100
AcDbLine
10
-5.8700000000000019
20
49.568000000000012
30
0
11
-3.4279999999999999
21
49.568000000000012
31
0
0
LINE
5
123
100
AcDbEntity
8
0
100
AcDbLine
10
-3.4279999999999999
20
49.568000000000012
30
0
11
-3.4279999999999999
21
51.492000000000004
31
0
0
LINE
5
124
100
AcDbEntity
8
0
100
AcDbLine
10
-25.028000000000002
20
54.031999999999996
30
0
11
-27.470000000000002
21
54.031999999999996
31
0
0
LINE
5
125
100
AcDbEntity
8
0
100
AcDbLine
10
-27.270000000000003
20
54.031999999999996
30
0
11
-27.970000000000002
21
54.031999999999996
31
0
0
LINE
5
126
100
AcDbEntity
8
0
100
AcDbLine
10
-27.970000000000002
20
54.031999999999996
30
0
11
-27.970000000000002
21
52.108000000000004
31
0
0
LINE
5
127
100
AcDbEntity
8
0
100
AcDbLine
10
-27.970000000000002
20
52.108000000000004
30
0
11
-27.270000000000003
21
52.108000000000004
31
0
0
LINE
5
128
100
AcDbEntity
8
0
100
AcDbLine
10
-27.470000000000002
20
52.108000000000004
30
0
11
-25.028000000000002
21
52.108000000000004
31
0
0
LINE
5
129
100
AcDbEntity
8
0
100
AcDbLine
10
-25.028000000000002
20
52.108000000000004
30
0
11
-25.028000000000002
21
54.031999999999996
31
0
0
LINE
5
130
100
AcDbEntity
8
0
100
AcDbLine
10
-3.4279999999999999
20
54.031999999999996
30
0
11
-5.8700000000000019
21
54.031999999999996
31
0
0
LINE
5
131
100
AcDbEntity
8
0
100
AcDbLine
10
-5.6700000000000017
20
54.031999999999996
30
0
11
-6.3700000000000001
21
54.031999999999996
31
0
0
LINE
5
132
100
AcDbEntity
8
0
100
AcDbLine
10
-6.3700000000000001
20
54.031999999999996
30
0
11
-6.3700000000000001
21
52.108000000000004
31
0
0
LINE
5
133
100
AcDbEntity
8
0
100
AcDbLine
10
-6.3700000000000001
20
52.108000000000004
30
0
11
-5.6700000000000017
21
52.108000000000004
31
0
0
LINE
5
134
100
AcDbEntity
8
0
100
AcDbLine
10
-5.8700000000000019
20
52.108000000000004
30
0
11
-3.4279999999999999
21
52.108000000000004
31
0
0
LINE
5
135
100
AcDbEntity
8
0
100
AcDbLine
10
-3.4279999999999999
20
52.108000000000004
30
0
11
-3.4279999999999999
21
54.031999999999996
31
0
0
LINE
5
136
100
AcDbEntity
8
0
100
AcDbLine
10
-25.028000000000002
20
56.571999999999996
30
0
11
-27.470000000000002
21
56.571999999999996
31
0
0
LINE
5
137
100
AcDbEntity
8
0
100
AcDbLine
10
-27.270000000000003
20
56.571999999999996
30
0
11
-27.970000000000002
21
56.571999999999996
31
0
0
LINE
5
138
100
AcDbEntity
8
0
100
AcDbLine
10
-27.970000000000002
20
56.571999999999996
30
0
11
-27.970000000000002
21
54.648000000000003
31
0
0
LINE
5
139
100
AcDbEntity
8
0
100
AcDbLine
10
-27.970000000000002
20
54.648000000000003
30
0
11
-27.270000000000003
21
54.648000000000003
31
0
0
LINE
5
140
100
AcDbEntity
8
0
100
AcDbLine
10
-27.470000000000002
20
54.648000000000003
30
0
11
-25.028000000000002
21
54.648000000000003
31
0
0
LINE
5
141
100
AcDbEntity
8
0
100
AcDbLine
10
-25.028000000000002
20
54.648000000000003
30
0
11
-25.028000000000002
21
56.571999999999996
31
0
0
LINE
5
142
100
AcDbEntity
8
0
100
AcDbLine
10
-3.4279999999999999
20
56.571999999999996
30
0
11
-5.8700000000000019
21
56.571999999999996
31
0
0
LINE
5
143
100
AcDbEntity
8
0
100
AcDbLine
10
-5.6700000000000017
20
56.571999999999996
30
0
11
-6.3700000000000001
21
56.571999999999996
31
0
0
LINE
5
144
100
AcDbEntity
8
0
100
AcDbLine
10
-6.3700000000000001
20
56.571999999999996
30
0
11
-6.3700000000000001
21
54.648000000000003
31
0
0
LINE
5
145
100
AcDbEntity
8
0
100
AcDbLine
10
-6.3700000000000001
20
54.648000000000003
30
0
11
-5.6700000000000017
21
54.648000000000003
31
0
0
LINE
5
146
100
AcDbEntity
8
0
100
AcDbLine
10
-5.8700000000000019
20
54.648000000000003
30
0
11
-3.4279999999999999
21
54.648000000000003
31
0
0
LINE
5
147
100
AcDbEntity
8
0
100
AcDbLine
10
-3.4279999999999999
20
54.648000000000003
30
0
11
-3.4279999999999999
21
56.571999999999996
31
0
0
LINE
5
148
100
AcDbEntity
8
0
100
AcDbLine
10
-25.028000000000002
20
59.112000000000002
30
0
11
-27.470000000000002
21
59.112000000000002
31
0
0
LINE
5
149
100
AcDbEntity
8
0
100
AcDbLine
10
-27.270000000000003
20
59.112000000000002
30
0
11
-27.970000000000002
21
59.112000000000002
31
0
0
LINE
5
150
100
AcDbEntity
8
0
100
AcDbLine
10
-27.970000000000002
20
59.112000000000002
30
0
11
-27.970000000000002
21
57.188000000000009
31
0
0
LINE
5
151
100
AcDbEntity
8
0
100
AcDbLine
10
-27.970000000000002
20
57.188000000000009
30
0
11
-27.270000000000003
21
57.188000000000009
31
0
0
LINE
5
152
100
AcDbEntity
8
0
100
AcDbLine
10
-27.470000000000002
20
57.188000000000009
30
0
11
-25.028000000000002
21
57.188000000000009
31
0
0
LINE
5
153
100
AcDbEntity
8
0
100
AcDbLine
10
-25.028000000000002
20
57.188000000000009
30
0
11
-25.028000000000002
21
59.112000000000002
31
0
0
LINE
5
154
100
AcDbEntity
8
0
100
AcDbLine
10
-3.4279999999999999
20
59.112000000000002
30
0
11
-5.8700000000000019
21
59.112000000000002
31
0
0
LINE
5
155
100
AcDbEntity
8
0
100
AcDbLine
10
-5.6700000000000017
20
59.112000000000002
30
0
11
-6.3700000000000001
21
59.112000000000002
31
0
0
LINE
5
156
100
AcDbEntity
8
0
100
AcDbLine
10
-6.3700000000000001
20
59.112000000000002
30
0
11
-6.3700000000000001
21
57.188000000000009
31
0
0
LINE
5
157
100
AcDbEntity
8
0
100
AcDbLine
10
-6.3700000000000001
20
57.188000000000009
30
0
11
-5.6700000000000017
21
57.188000000000009
31
0
0
LINE
5
158
100
AcDbEntity
8
0
100
AcDbLine
10
-5.8700000000000019
20
57.188000000000009
30
0
11
-3.4279999999999999
21
57.188000000000009
31
0
0
LINE
5
159
100
AcDbEntity
8
0
100
AcDbLine
10
-3.4279999999999999
20
57.188000000000009
30
0
11
-3.4279999999999999
21
59.112000000000002
31
0
0
LINE
5
160
100
AcDbEntity
8
0
100
AcDbLine
10
-25.028000000000002
20
61.652000000000001
30
0
11
-27.470000000000002
21
61.652000000000001
31
0
0
LINE
5
161
100
AcDbEntity
8
0
100
AcDbLine
10
-27.270000000000003
20
61.652000000000001
30
0
11
-27.970000000000002
21
61.652000000000001
31
0
0
LINE
5
162
100
AcDbEntity
8
0
100
AcDbLine
10
-27.970000000000002
20
61.652000000000001
30
0
11
-27.970000000000002
21
59.728000000000009
31
0
0
LINE
5
163
100
AcDbEntity
8
0
100
AcDbLine
10
-27.970000000000002
20
59.728000000000009
30
0
11
-27.270000000000003
21
59.728000000000009
31
0
0
LINE
5
164
100
AcDbEntity
8
0
100
AcDbLine
10
-27.470000000000002
20
59.728000000000009
30
0
11
-25.028000000000002
21
59.728000000000009
31
0
0
LINE
5
165
100
AcDbEntity
8
0
100
AcDbLine
10
-25.028000000000002
20
59.728000000000009
30
0
11
-25.028000000000002
21
61.652000000000001
31
0
0
LINE
5
166
100
AcDbEntity
8
0
100
AcDbLine
10
-3.4279999999999999
20
61.652000000000001
30
0
11
-5.8700000000000019
21
61.652000000000001
31
0
0
LINE
5
167
100
AcDbEntity
8
0
100
AcDbLine
10
-5.6700000000000017
20
61.652000000000001
30
0
11
-6.3700000000000001
21
61.652000000000001
31
0
0
LINE
5
168
100
AcDbEntity
8
0
100
AcDbLine
10
-6.3700000000000001
20
61.652000000000001
30
0
11
-6.3700000000000001
21
59.728000000000009
31
0
0
LINE
5
169
100
AcDbEntity
8
0
100
AcDbLine
10
-6.3700000000000001
20
59.728000000000009
30
0
11
-5.6700000000000017
21
59.728000000000009
31
0
0
LINE
5
170
100
AcDbEntity
8
0
100
AcDbLine
10
-5.8700000000000019
20
59.728000000000009
30
0
11
-3.4279999999999999
21
59.728000000000009
31
0
0
LINE
5
171
100
AcDbEntity
8
0
100
AcDbLine
10
-3.4279999999999999
20
59.728000000000009
30
0
11
-3.4279999999999999
21
61.652000000000001
31
0
0
LINE
5
172
100
AcDbEntity
8
0
100
AcDbLine
10
-25.028000000000002
20
64.192000000000007
30
0
11
-27.470000000000002
21
64.192000000000007
31
0
0
LINE
5
173
100
AcDbEntity
8
0
100
AcDbLine
10
-27.270000000000003
20
64.192000000000007
30
0
11
-27.970000000000002
21
64.192000000000007
31
0
0
LINE
5
174
100
AcDbEntity
8
0
100
AcDbLine
10
-27.970000000000002
20
64.192000000000007
30
0
11
-27.970000000000002
21
62.268000000000008
31
0
0
LINE
5
175
100
AcDbEntity
8
0
100
AcDbLine
10
-27.970000000000002
20
62.268000000000008
30
0
11
-27.270000000000003
21
62.268000000000008
31
0
0
LINE
5
176
100
AcDbEntity
8
0
100
AcDbLine
10
-27.470000000000002
20
62.268000000000008
30
0
11
-25.028000000000002
21
62.268000000000008
31
0
0
LINE
5
177
100
AcDbEntity
8
0
100
AcDbLine
10
-25.028000000000002
20
62.268000000000008
30
0
11
-25.028000000000002
21
64.192000000000007
31
0
0
LINE
5
178
100
AcDbEntity
8
0
100
AcDbLine
10
-3.4279999999999999
20
64.192000000000007
30
0
11
-5.8700000000000019
21
64.192000000000007
31
0
0
LINE
5
179
100
AcDbEntity
8
0
100
AcDbLine
10
-5.6700000000000017
20
64.192000000000007
30
0
11
-6.3700000000000001
21
64.192000000000007
31
0
0
LINE
5
180
100
AcDbEntity
8
0
100
AcDbLine
10
-6.3700000000000001
20
64.192000000000007
30
0
11
-6.3700000000000001
21
62.268000000000008
31
0
0
LINE
5
181
100
AcDbEntity
8
0
100
AcDbLine
10
-6.3700000000000001
20
62.268000000000008
30
0
11
-5.6700000000000017
21
62.268000000000008
31
0
0
LINE
5
182
100
AcDbEntity
8
0
100
AcDbLine
10
-5.8700000000000019
20
62.268000000000008
30
0
11
-3.4279999999999999
21
62.268000000000008
31
0
0
LINE
5
183
100
AcDbEntity
8
0
100
AcDbLine
10
-3.4279999999999999
20
62.268000000000008
30
0
11
-3.4279999999999999
21
64.192000000000007
31
0
0
LINE
5
184
100
AcDbEntity
8
0
100
AcDbLine
10
-25.028000000000002
20
66.731999999999999
30
0
11
-27.470000000000002
21
66.731999999999999
31
0
0
LINE
5
185
100
AcDbEntity
8
0
100
AcDbLine
10
-27.270000000000003
20
66.731999999999999
30
0
11
-27.970000000000002
21
66.731999999999999
31
0
0
LINE
5
186
100
AcDbEntity
8
0
100
AcDbLine
10
-27.970000000000002
20
66.731999999999999
30
0
11
-27.970000000000002
21
64.808000000000007
31
0
0
LINE
5
187
100
AcDbEntity
8
0
100
AcDbLine
10
-27.970000000000002
20
64.808000000000007
30
0
11
-27.270000000000003
21
64.808000000000007
31
0
0
LINE
5
188
100
AcDbEntity
8
0
100
AcDbLine
10
-27.470000000000002
20
64.808000000000007
30
0
11
-25.028000000000002
21
64.808000000000007
31
0
0
LINE
5
189
100
AcDbEntity
8
0
100
AcDbLine
10
-25.028000000000002
20
64.808000000000007
30
0
11
-25.028000000000002
21
66.731999999999999
31
0
0
LINE
5
190
100
AcDbEntity
8
0
100
AcDbLine
10
-3.4279999999999999
20
66.731999999999999
30
0
11
-5.8700000000000019
21
66.731999999999999
31
0
0
LINE
5
191
100
AcDbEntity
8
0
100
AcDbLine
10
-5.6700000000000017
20
66.731999999999999
30
0
11
-6.3700000000000001
21
66.731999999999999
31
0
0
LINE
5
192
100
AcDbEntity
8
0
100
AcDbLine
10
-6.3700000000000001
20
66.731999999999999
30
0
11
-6.3700000000000001
21
64.808000000000007
31
0
0
LINE
5
193
100
AcDbEntity
8
0
100
AcDbLine
10
-6.3700000000000001
20
64.808000000000007
30
0
11
-5.6700000000000017
21
64.808000000000007
31
0
0
LINE
5
194
100
AcDbEntity
8
0
100
AcDbLine
10
-5.8700000000000019
20
64.808000000000007
30
0
11
-3.4279999999999999
21
64.808000000000007
31
0
0
LINE
5
195
100
AcDbEntity
8
0
100
AcDbLine
10
-3.4279999999999999
20
64.808000000000007
30
0
11
-3.4279999999999999
21
66.731999999999999
31
0
0
LINE
5
196
100
AcDbEntity
8
0
100
AcDbLine
10
-25.028000000000002
20
69.272000000000006
30
0
11
-27.470000000000002
21
69.272000000000006
31
0
0
LINE
5
197
100
AcDbEntity
8
0
100
AcDbLine
10
-27.270000000000003
20
69.272000000000006
30
0
11
-27.970000000000002
21
69.272000000000006
31
0
0
LINE
5
198
100
AcDbEntity
8
0
100
AcDbLine
10
-27.970000000000002
20
69.272000000000006
30
0
11
-27.970000000000002
21
67.348000000000013
31
0
0
LINE
5
199
100
AcDbEntity
8
0
100
AcDbLine
10
-27.970000000000002
20
67.348000000000013
30
0
11
-27.270000000000003
21
67.348000000000013
31
0
0
LINE
5
200
100
AcDbEntity
8
0
100
AcDbLine
10
-27.470000000000002
20
67.348000000000013
30
0
11
-25.028000000000002
21
67.348000000000013
31
0
0
LINE
5
201
100
AcDbEntity
8
0
100
AcDbLine
10
-25.028000000000002
20
67.348000000000013
30
0
11
-25.028000000000002
21
69.272000000000006
31
0
0
LINE
5
202
100
AcDbEntity
8
0
100
AcDbLine
10
-3.4279999999999999
20
69.272000000000006
30
0
11
-5.8700000000000019
21
69.272000000000006
31
0
0
LINE
5
203
100
AcDbEntity
8
0
100
AcDbLine
10
-5.6700000000000017
20
69.272000000000006
30
0
11
-6.3700000000000001
21
69.272000000000006
31
0
0
LINE
5
204
100
AcDbEntity
8
0
100
AcDbLine
10
-6.3700000000000001
20
69.272000000000006
30
0
11
-6.3700000000000001
21
67.348000000000013
31
0
0
LINE
5
205
100
AcDbEntity
8
0
100
AcDbLine
10
-6.3700000000000001
20
67.348000000000013
30
0
11
-5.6700000000000017
21
67.348000000000013
31
0
0
LINE
5
206
100
AcDbEntity
8
0
100
AcDbLine
10
-5.8700000000000019
20
67.348000000000013
30
0
11
-3.4279999999999999
21
67.348000000000013
31
0
0
LINE
5
207
100
AcDbEntity
8
0
100
AcDbLine
10
-3.4279999999999999
20
67.348000000000013
30
0
11
-3.4279999999999999
21
69.272000000000006
31
0
0
LINE
5
208
100
AcDbEntity
8
0
100
AcDbLine
10
-25.028000000000002
20
71.812000000000012
30
0
11
-27.470000000000002
21
71.812000000000012
31
0
0
LINE
5
209
100
AcDbEntity
8
0
100
AcDbLine
10
-27.270000000000003
20
71.812000000000012
30
0
11
-27.970000000000002
21
71.812000000000012
31
0
0
LINE
5
210
100
AcDbEntity
8
0
100
AcDbLine
10
-27.970000000000002
20
71.812000000000012
30
0
11
-27.970000000000002
21
69.888000000000005
31
0
0
LINE
5
211
100
AcDbEntity
8
0
100
AcDbLine
10
-27.970000000000002
20
69.888000000000005
30
0
11
-27.270000000000003
21
69.888000000000005
31
0
0
LINE
5
212
100
AcDbEntity
8
0
100
AcDbLine
10
-27.470000000000002
20
69.888000000000005
30
0
11
-25.028000000000002
21
69.888000000000005
31
0
0
LINE
5
213
100
AcDbEntity
8
0
100
AcDbLine
10
-25.028000000000002
20
69.888000000000005
30
0
11
-25.028000000000002
21
71.812000000000012
31
0
0
LINE
5
214
100
AcDbEntity
8
0
100
AcDbLine
10
-3.4279999999999999
20
71.812000000000012
30
0
11
-5.8700000000000019
21
71.812000000000012
31
0
0
LINE
5
215
100
AcDbEntity
8
0
100
AcDbLine
10
-5.6700000000000017
20
71.812000000000012
30
0
11
-6.3700000000000001
21
71.812000000000012
31
0
0
LINE
5
216
100
AcDbEntity
8
0
100
AcDbLine
10
-6.3700000000000001
20
71.812000000000012
30
0
11
-6.3700000000000001
21
69.888000000000005
31
0
0
LINE
5
217
100
AcDbEntity
8
0
100
AcDbLine
10
-6.3700000000000001
20
69.888000000000005
30
0
11
-5.6700000000000017
21
69.888000000000005
31
0
0
LINE
5
218
100
AcDbEntity
8
0
100
AcDbLine
10
-5.8700000000000019
20
69.888000000000005
30
0
11
-3.4279999999999999
21
69.888000000000005
31
0
0
LINE
5
219
100
AcDbEntity
8
0
100
AcDbLine
10
-3.4279999999999999
20
69.888000000000005
30
0
11
-3.4279999999999999
21
71.812000000000012
31
0
0
LINE
5
220
100
AcDbEntity
8
0
100
AcDbLine
10
-25.028000000000002
20
74.352000000000004
30
0
11
-27.470000000000002
21
74.352000000000004
31
0
0
LINE
5
221
100
AcDbEntity
8
0
100
AcDbLine
10
-27.270000000000003
20
74.352000000000004
30
0
11
-27.970000000000002
21
74.352000000000004
31
0
0
LINE
5
222
100
AcDbEntity
8
0
100
AcDbLine
10
-27.970000000000002
20
74.352000000000004
30
0
11
-27.970000000000002
21
72.428000000000011
31
0
0
LINE
5
223
100
AcDbEntity
8
0
100
AcDbLine
10
-27.970000000000002
20
72.428000000000011
30
0
11
-27.270000000000003
21
72.428000000000011
31
0
0
LINE
5
224
100
AcDbEntity
8
0
100
AcDbLine
10
-27.470000000000002
20
72.428000000000011
30
0
11
-25.028000000000002
21
72.428000000000011
31
0
0
LINE
5
225
100
AcDbEntity
8
0
100
AcDbLine
10
-25.028000000000002
20
72.428000000000011
30
0
11
-25.028000000000002
21
74.352000000000004
31
0
0
LINE
5
226
100
AcDbEntity
8
0
100
AcDbLine
10
-3.4279999999999999
20
74.352000000000004
30
0
11
-5.8700000000000019
21
74.352000000000004
31
0
0
LINE
5
227
100
AcDbEntity
8
0
100
AcDbLine
10
-5.6700000000000017
20
74.352000000000004
30
0
11
-6.3700000000000001
21
74.352000000000004
31
0
0
LINE
5
228
100
AcDbEntity
8
0
100
AcDbLine
10
-6.3700000000000001
20
74.352000000000004
30
0
11
-6.3700000000000001
21
72.428000000000011
31
0
0
LINE
5
229
100
AcDbEntity
8
0
100
AcDbLine
10
-6.3700000000000001
20
72.428000000000011
30
0
11
-5.6700000000000017
21
72.428000000000011
31
0
0
LINE
5
230
100
AcDbEntity
8
0
100
AcDbLine
10
-5.8700000000000019
20
72.428000000000011
30
0
11
-3.4279999999999999
21
72.428000000000011
31
0
0
LINE
5
231
100
AcDbEntity
8
0
100
AcDbLine
10
-3.4279999999999999
20
72.428000000000011
30
0
11
-3.4279999999999999
21
74.352000000000004
31
0
0
LINE
5
232
100
AcDbEntity
8
0
100
AcDbLine
10
-25.028000000000002
20
76.891999999999996
30
0
11
-27.470000000000002
21
76.891999999999996
31
0
0
LINE
5
233
100
AcDbEntity
8
0
100
AcDbLine
10
-27.270000000000003
20
76.891999999999996
30
0
11
-27.970000000000002
21
76.891999999999996
31
0
0
LINE
5
234
100
AcDbEntity
8
0
100
AcDbLine
10
-27.970000000000002
20
76.891999999999996
30
0
11
-27.970000000000002
21
74.968000000000004
31
0
0
LINE
5
235
100
AcDbEntity
8
0
100
AcDbLine
10
-27.970000000000002
20
74.968000000000004
30
0
11
-27.270000000000003
21
74.968000000000004
31
0
0
LINE
5
236
100
AcDbEntity
8
0
100
AcDbLine
10
-27.470000000000002
20
74.968000000000004
30
0
11
-25.028000000000002
21
74.968000000000004
31
0
0
LINE
5
237
100
AcDbEntity
8
0
100
AcDbLine
10
-25.028000000000002
20
74.968000000000004
30
0
11
-25.028000000000002
21
76.891999999999996
31
0
0
LINE
5
238
100
AcDbEntity
8
0
100
AcDbLine
10
-3.4279999999999999
20
76.891999999999996
30
0
11
-5.8700000000000019
21
76.891999999999996
31
0
0
LINE
5
239
100
AcDbEntity
8
0
100
AcDbLine
10
-5.6700000000000017
20
76.891999999999996
30
0
11
-6.3700000000000001
21
76.891999999999996
31
0
0
LINE
5
240
100
AcDbEntity
8
0
100
AcDbLine
10
-6.3700000000000001
20
76.891999999999996
30
0
11
-6.3700000000000001
21
74.968000000000004
31
0
0
LINE
5
241
100
AcDbEntity
8
0
100
AcDbLine
10
-6.3700000000000001
20
74.968000000000004
30
0
11
-5.6700000000000017
21
74.968000000000004
31
0
0
LINE
5
242
100
AcDbEntity
8
0
100
AcDbLine
10
-5.8700000000000019
20
74.968000000000004
30
0
11
-3.4279999999999999
21
74.968000000000004
31
0
0
LINE
5
243
100
AcDbEntity
8
0
100
AcDbLine
10
-3.4279999999999999
20
74.968000000000004
30
0
11
-3.4279999999999999
21
76.891999999999996
31
0
0
LINE
5
244
100
AcDbEntity
8
0
100
AcDbLine
10
-25.028000000000002
20
79.432000000000002
30
0
11
-27.470000000000002
21
79.432000000000002
31
0
0
LINE
5
245
100
AcDbEntity
8
0
100
AcDbLine
10
-27.270000000000003
20
79.432000000000002
30
0
11
-27.970000000000002
21
79.432000000000002
31
0
0
LINE
5
246
100
AcDbEntity
8
0
100
AcDbLine
10
-27.970000000000002
20
79.432000000000002
30
0
11
-27.970000000000002
21
77.50800000000001
31
0
0
LINE
5
247
100
AcDbEntity
8
0
100
AcDbLine
10
-27.970000000000002
20
77.50800000000001
30
0
11
-27.270000000000003
21
77.50800000000001
31
0
0
LINE
5
248
100
AcDbEntity
8
0
100
AcDbLine
10
-27.470000000000002
20
77.50800000000001
30
0
11
-25.028000000000002
21
77.50800000000001
31
0
0
LINE
5
249
100
AcDbEntity
8
0
100
AcDbLine
10
-25.028000000000002
20
77.50800000000001
30
0
11
-25.028000000000002
21
79.432000000000002
31
0
0
LINE
5
250
100
AcDbEntity
8
0
100
AcDbLine
10
-3.4279999999999999
20
79.432000000000002
30
0
11
-5.8700000000000019
21
79.432000000000002
31
0
0
LINE
5
251
100
AcDbEntity
8
0
100
AcDbLine
10
-5.6700000000000017
20
79.432000000000002
30
0
11
-6.3700000000000001
21
79.432000000000002
31
0
0
LINE
5
252
100
AcDbEntity
8
0
100
AcDbLine
10
-6.3700000000000001
20
79.432000000000002
30
0
11
-6.3700000000000001
21
77.50800000000001
31
0
0
LINE
5
253
100
AcDbEntity
8
0
100
AcDbLine
10
-6.3700000000000001
20
77.50800000000001
30
0
11
-5.6700000000000017
21
77.50800000000001
31
0
0
LINE
5
254
100
AcDbEntity
8
0
100
AcDbLine
10
-5.8700000000000019
20
77.50800000000001
30
0
11
-3.4279999999999999
21
77.50800000000001
31
0
0
LINE
5
255
100
AcDbEntity
8
0
100
AcDbLine
10
-3.4279999999999999
20
77.50800000000001
30
0
11
-3.4279999999999999
21
79.432000000000002
31
0
0
LINE
5
256
100
AcDbEntity
8
0
100
AcDbLine
10
-25.028000000000002
20
81.972000000000008
30
0
11
-27.470000000000002
21
81.972000000000008
31
0
0
LINE
5
257
100
AcDbEntity
8
0
100
AcDbLine
10
-27.270000000000003
20
81.972000000000008
30
0
11
-27.970000000000002
21
81.972000000000008
31
0
0
LINE
5
258
100
AcDbEntity
8
0
100
AcDbLine
10
-27.970000000000002
20
81.972000000000008
30
0
11
-27.970000000000002
21
80.048000000000016
31
0
0
LINE
5
259
100
AcDbEntity
8
0
100
AcDbLine
10
-27.970000000000002
20
80.048000000000016
30
0
11
-27.270000000000003
21
80.048000000000016
31
0
0
LINE
5
260
100
AcDbEntity
8
0
100
AcDbLine
10
-27.470000000000002
20
80.048000000000016
30
0
11
-25.028000000000002
21
80.048000000000016
31
0
0
LINE
5
261
100
AcDbEntity
8
0
100
AcDbLine
10
-25.028000000000002
20
80.048000000000016
30
0
11
-25.028000000000002
21
81.972000000000008
31
0
0
LINE
5
262
100
AcDbEntity
8
0
100
AcDbLine
10
-3.4279999999999999
20
81.972000000000008
30
0
11
-5.8700000000000019
21
81.972000000000008
31
0
0
LINE
5
263
100
AcDbEntity
8
0
100
AcDbLine
10
-5.6700000000000017
20
81.972000000000008
30
0
11
-6.3700000000000001
21
81.972000000000008
31
0
0
LINE
5
264
100
AcDbEntity
8
0
100
AcDbLine
10
-6.3700000000000001
20
81.972000000000008
30
0
11
-6.3700000000000001
21
80.048000000000016
31
0
0
LINE
5
265
100
AcDbEntity
8
0
100
AcDbLine
10
-6.3700000000000001
20
80.048000000000016
30
0
11
-5.6700000000000017
21
80.048000000000016
31
0
0
LINE
5
266
100
AcDbEntity
8
0
100
AcDbLine
10
-5.8700000000000019
20
80.048000000000016
30
0
11
-3.4279999999999999
21
80.048000000000016
31
0
0
LINE
5
267
100
AcDbEntity
8
0
100
AcDbLine
10
-3.4279999999999999
20
80.048000000000016
30
0
11
-3.4279999999999999
21
81.972000000000008
31
0
0
LWPOLYLINE
5
268
100
AcDbEntity
8
0
100
AcDbPolyline
90
3
70
1
43
0.0
10
-12.661249247625596
20
48.440514760708467
42
0.95507500643803922
10
-12.492366552680355
20
50.101719249714847
42
1.0031421269470586
10
-12.732444907390761
20
48.447527575047459
0
LWPOLYLINE
5
269
100
AcDbEntity
8
0
100
AcDbPolyline
90
3
70
1
43
0.0
10
-19.002444979594014
20
48.387527582159564
10
-18.931249320297574
20
48.380514767866728
42
0.95507495834413381
10
-18.762365397654673
20
50.041719226718577
42
1.003142177229629
0
LWPOLYLINE
5
270
100
AcDbEntity
8
0
100
AcDbPolyline
90
3
70
1
43
0.0
10
-13.746249415294706
20
57.565514770001073
42
0.95507510248876681
10
-13.577366552680349
20
59.226719249714833
42
1.0031420699392299
10
-13.817444001449424
20
57.572527591533039
0
LWPOLYLINE
5
271
100
AcDbEntity
8
0
100
AcDbPolyline
90
3
70
1
43
0.0
10
-20.917444001449365
20
59.272527591533063
10
-20.846249415295532
20
59.265514770001111
42
0.95507510248924044
10
-20.677366552680358
20
60.926719249714836
42
1.0031420699392741
0
LWPOLYLINE
5
272
100
AcDbEntity
8
0
100
AcDbPolyline
90
3
70
1
43
0.0
10
-21.51744497959367
20
70.37252758215952
10
-21.446249320298381
20
70.365514767866756
42
0.95507495834459533
10
-21.277365397654677
20
72.026719226718569
42
1.0031421772298419
0
LWPOLYLINE
5
273
100
AcDbEntity
8
0
100
AcDbPolyline
90
3
70
1
43
0.0
10
-21.452344001450271
20
72.572527591533188
10
-21.381149415294374
20
72.565514770001045
42
0.95507510248857941
10
-21.212266552680362
20
74.226719249714847
42
1.0031420699387152
0
ENDSEC
0
SECTION
2
OBJECTS
0
DICTIONARY
5
C
100
AcDbDictionary
3
ACAD_GROUP
350
D
3
ACAD_MLINESTYLE
350
17
0
DICTIONARY
5
D
100
AcDbDictionary
0
DICTIONARY
5
1A
330
C
100
AcDbDictionary
0
DICTIONARY
5
17
100
AcDbDictionary
0
ENDSEC
0
EOF
